<svg width="107" height="30" viewBox="0 0 107 30" fill="none" xmlns="http://www.w3.org/2000/svg">
<path d="M1.98291 22V6.5425H7.85541L9.72291 13.4275C9.79791 13.6675 9.88791 13.9975 9.99291 14.4175C10.0979 14.8225 10.2029 15.25 10.3079 15.7C10.4129 16.15 10.5029 16.555 10.5779 16.915H10.7579C10.8179 16.63 10.8929 16.2925 10.9829 15.9025C11.0729 15.4975 11.1704 15.0775 11.2754 14.6425C11.3804 14.1925 11.4779 13.78 11.5679 13.405L13.4579 6.5425H19.1729V22H15.2579V15.4075C15.2579 14.7625 15.2579 14.11 15.2579 13.45C15.2729 12.79 15.2879 12.19 15.3029 11.65C15.3179 11.11 15.3254 10.72 15.3254 10.48H15.1454C15.1004 10.705 15.0254 11.035 14.9204 11.47C14.8304 11.89 14.7254 12.3325 14.6054 12.7975C14.5004 13.2475 14.4029 13.6375 14.3129 13.9675L12.0629 22H8.82291L6.55041 13.9675C6.47541 13.6675 6.38541 13.3075 6.28041 12.8875C6.17541 12.4675 6.07041 12.04 5.96541 11.605C5.87541 11.17 5.79291 10.8025 5.71791 10.5025H5.53791C5.55291 10.8925 5.56791 11.3725 5.58291 11.9425C5.59791 12.4975 5.61291 13.0825 5.62791 13.6975C5.64291 14.2975 5.65041 14.8675 5.65041 15.4075V22H1.98291ZM21.6943 8.545V5.71H25.3843V8.545H21.6943ZM21.6943 22V10.1425H25.3843V22H21.6943ZM30.9213 22.27C30.4263 22.27 29.9388 22.2175 29.4588 22.1125C28.9938 22.0225 28.5663 21.8575 28.1763 21.6175C27.8013 21.3625 27.5013 21.0175 27.2763 20.5825C27.0513 20.1475 26.9388 19.6 26.9388 18.94C26.9388 18.085 27.1188 17.3875 27.4788 16.8475C27.8388 16.3075 28.3563 15.8875 29.0312 15.5875C29.7213 15.2725 30.5463 15.055 31.5063 14.935C32.4813 14.815 33.5688 14.755 34.7688 14.755V14.0125C34.7688 13.6675 34.7013 13.3825 34.5663 13.1575C34.4313 12.9175 34.2288 12.7375 33.9588 12.6175C33.7038 12.4825 33.3588 12.415 32.9238 12.415C32.5338 12.415 32.1888 12.46 31.8888 12.55C31.6038 12.64 31.3863 12.775 31.2363 12.955C31.0863 13.12 31.0113 13.3225 31.0113 13.5625V13.765H27.4113C27.3963 13.69 27.3888 13.63 27.3888 13.585C27.3888 13.525 27.3888 13.45 27.3888 13.36C27.3888 12.655 27.6063 12.04 28.0413 11.515C28.4913 10.99 29.1288 10.585 29.9538 10.3C30.7788 10.015 31.7763 9.8725 32.9463 9.8725C34.0413 9.8725 34.9938 10.0075 35.8038 10.2775C36.6288 10.5475 37.2738 10.96 37.7388 11.515C38.2188 12.07 38.4588 12.7975 38.4588 13.6975V18.76C38.4588 19.015 38.5263 19.2175 38.6613 19.3675C38.8113 19.5175 38.9913 19.5925 39.2013 19.5925H39.9663V21.865C39.8013 21.94 39.5388 22.0225 39.1788 22.1125C38.8338 22.2175 38.4138 22.27 37.9188 22.27C37.4088 22.27 36.9588 22.2025 36.5688 22.0675C36.1938 21.9475 35.8788 21.775 35.6238 21.55C35.3838 21.31 35.2188 21.0325 35.1288 20.7175H34.9713C34.6863 21.0175 34.3488 21.2875 33.9588 21.5275C33.5838 21.7675 33.1413 21.9475 32.6313 22.0675C32.1363 22.2025 31.5663 22.27 30.9213 22.27ZM32.2938 19.7275C32.6538 19.7275 32.9838 19.675 33.2838 19.57C33.5838 19.465 33.8388 19.3225 34.0488 19.1425C34.2738 18.9475 34.4463 18.715 34.5663 18.445C34.7013 18.175 34.7688 17.8825 34.7688 17.5675V16.78C33.9138 16.78 33.1788 16.84 32.5638 16.96C31.9488 17.08 31.4763 17.2675 31.1463 17.5225C30.8163 17.7775 30.6513 18.1 30.6513 18.49C30.6513 18.775 30.7188 19.015 30.8538 19.21C31.0038 19.39 31.1988 19.525 31.4388 19.615C31.6788 19.69 31.9638 19.7275 32.2938 19.7275ZM40.916 22V5.71H44.606V22H40.916ZM46.8354 22V10.1425H49.8729L50.1429 11.83H50.3004C50.5704 11.425 50.8929 11.0725 51.2679 10.7725C51.6579 10.4725 52.0854 10.2475 52.5504 10.0975C53.0154 9.9475 53.5104 9.8725 54.0354 9.8725C54.8454 9.8725 55.5354 10.0375 56.1054 10.3675C56.6754 10.6825 57.1104 11.17 57.4104 11.83H57.5679C57.8379 11.425 58.1604 11.0725 58.5354 10.7725C58.9254 10.4725 59.3529 10.2475 59.8179 10.0975C60.2979 9.9475 60.7929 9.8725 61.3029 9.8725C62.1279 9.8725 62.8254 10.03 63.3954 10.345C63.9654 10.645 64.4004 11.11 64.7004 11.74C65.0154 12.355 65.1729 13.1425 65.1729 14.1025V22H61.4829V14.665C61.4829 14.335 61.4454 14.0575 61.3704 13.8325C61.2954 13.5925 61.1904 13.3975 61.0554 13.2475C60.9204 13.0825 60.7479 12.9625 60.5379 12.8875C60.3279 12.8125 60.1029 12.775 59.8629 12.775C59.4729 12.775 59.1204 12.88 58.8054 13.09C58.5054 13.285 58.2729 13.555 58.1079 13.9C57.9429 14.23 57.8604 14.62 57.8604 15.07V22H54.1704V14.665C54.1704 14.335 54.1329 14.0575 54.0579 13.8325C53.9829 13.5925 53.8779 13.3975 53.7429 13.2475C53.6079 13.0825 53.4354 12.9625 53.2254 12.8875C53.0154 12.8125 52.7904 12.775 52.5504 12.775C52.1604 12.775 51.8079 12.88 51.4929 13.09C51.1929 13.285 50.9529 13.555 50.7729 13.9C50.6079 14.23 50.5254 14.62 50.5254 15.07V22H46.8354ZM70.6522 22.27C70.1572 22.27 69.6697 22.2175 69.1897 22.1125C68.7247 22.0225 68.2972 21.8575 67.9072 21.6175C67.5322 21.3625 67.2322 21.0175 67.0072 20.5825C66.7822 20.1475 66.6697 19.6 66.6697 18.94C66.6697 18.085 66.8497 17.3875 67.2097 16.8475C67.5697 16.3075 68.0872 15.8875 68.7622 15.5875C69.4522 15.2725 70.2772 15.055 71.2372 14.935C72.2122 14.815 73.2997 14.755 74.4997 14.755V14.0125C74.4997 13.6675 74.4322 13.3825 74.2972 13.1575C74.1622 12.9175 73.9597 12.7375 73.6897 12.6175C73.4347 12.4825 73.0897 12.415 72.6547 12.415C72.2647 12.415 71.9197 12.46 71.6197 12.55C71.3347 12.64 71.1172 12.775 70.9672 12.955C70.8172 13.12 70.7422 13.3225 70.7422 13.5625V13.765H67.1422C67.1272 13.69 67.1197 13.63 67.1197 13.585C67.1197 13.525 67.1197 13.45 67.1197 13.36C67.1197 12.655 67.3372 12.04 67.7722 11.515C68.2222 10.99 68.8597 10.585 69.6847 10.3C70.5097 10.015 71.5072 9.8725 72.6772 9.8725C73.7722 9.8725 74.7247 10.0075 75.5347 10.2775C76.3597 10.5475 77.0047 10.96 77.4697 11.515C77.9497 12.07 78.1897 12.7975 78.1897 13.6975V18.76C78.1897 19.015 78.2572 19.2175 78.3922 19.3675C78.5422 19.5175 78.7222 19.5925 78.9322 19.5925H79.6972V21.865C79.5322 21.94 79.2697 22.0225 78.9097 22.1125C78.5647 22.2175 78.1447 22.27 77.6497 22.27C77.1397 22.27 76.6897 22.2025 76.2997 22.0675C75.9247 21.9475 75.6097 21.775 75.3547 21.55C75.1147 21.31 74.9497 21.0325 74.8597 20.7175H74.7022C74.4172 21.0175 74.0797 21.2875 73.6897 21.5275C73.3147 21.7675 72.8722 21.9475 72.3622 22.0675C71.8672 22.2025 71.2972 22.27 70.6522 22.27ZM72.0247 19.7275C72.3847 19.7275 72.7147 19.675 73.0147 19.57C73.3147 19.465 73.5697 19.3225 73.7797 19.1425C74.0047 18.9475 74.1772 18.715 74.2972 18.445C74.4322 18.175 74.4997 17.8825 74.4997 17.5675V16.78C73.6447 16.78 72.9097 16.84 72.2947 16.96C71.6797 17.08 71.2072 17.2675 70.8772 17.5225C70.5472 17.7775 70.3822 18.1 70.3822 18.49C70.3822 18.775 70.4497 19.015 70.5847 19.21C70.7347 19.39 70.9297 19.525 71.1697 19.615C71.4097 19.69 71.6947 19.7275 72.0247 19.7275ZM84.5845 22.27C83.3095 22.27 82.3195 21.9175 81.6145 21.2125C80.9245 20.5075 80.5795 19.4275 80.5795 17.9725V10.1425H84.2695V17.455C84.2695 17.77 84.307 18.0475 84.382 18.2875C84.472 18.5275 84.592 18.73 84.742 18.895C84.892 19.06 85.0795 19.18 85.3045 19.255C85.5445 19.33 85.7995 19.3675 86.0695 19.3675C86.5045 19.3675 86.887 19.27 87.217 19.075C87.547 18.865 87.8095 18.5875 88.0045 18.2425C88.1995 17.8825 88.297 17.4925 88.297 17.0725V10.1425H91.987V22H88.9495L88.7245 20.3125H88.567C88.297 20.7025 87.952 21.0475 87.532 21.3475C87.127 21.6475 86.6695 21.8725 86.1595 22.0225C85.6645 22.1875 85.1395 22.27 84.5845 22.27ZM97.5423 22.27C97.0473 22.27 96.5598 22.2175 96.0798 22.1125C95.6148 22.0225 95.1873 21.8575 94.7973 21.6175C94.4223 21.3625 94.1223 21.0175 93.8973 20.5825C93.6723 20.1475 93.5598 19.6 93.5598 18.94C93.5598 18.085 93.7398 17.3875 94.0998 16.8475C94.4598 16.3075 94.9773 15.8875 95.6523 15.5875C96.3423 15.2725 97.1673 15.055 98.1273 14.935C99.1023 14.815 100.19 14.755 101.39 14.755V14.0125C101.39 13.6675 101.322 13.3825 101.187 13.1575C101.052 12.9175 100.85 12.7375 100.58 12.6175C100.325 12.4825 99.9798 12.415 99.5448 12.415C99.1548 12.415 98.8098 12.46 98.5098 12.55C98.2248 12.64 98.0073 12.775 97.8573 12.955C97.7073 13.12 97.6323 13.3225 97.6323 13.5625V13.765H94.0323C94.0173 13.69 94.0098 13.63 94.0098 13.585C94.0098 13.525 94.0098 13.45 94.0098 13.36C94.0098 12.655 94.2273 12.04 94.6623 11.515C95.1123 10.99 95.7498 10.585 96.5748 10.3C97.3998 10.015 98.3973 9.8725 99.5673 9.8725C100.662 9.8725 101.615 10.0075 102.425 10.2775C103.25 10.5475 103.895 10.96 104.36 11.515C104.84 12.07 105.08 12.7975 105.08 13.6975V18.76C105.08 19.015 105.147 19.2175 105.282 19.3675C105.432 19.5175 105.612 19.5925 105.822 19.5925H106.587V21.865C106.422 21.94 106.16 22.0225 105.8 22.1125C105.455 22.2175 105.035 22.27 104.54 22.27C104.03 22.27 103.58 22.2025 103.19 22.0675C102.815 21.9475 102.5 21.775 102.245 21.55C102.005 21.31 101.84 21.0325 101.75 20.7175H101.592C101.307 21.0175 100.97 21.2875 100.58 21.5275C100.205 21.7675 99.7623 21.9475 99.2523 22.0675C98.7573 22.2025 98.1873 22.27 97.5423 22.27ZM98.9148 19.7275C99.2748 19.7275 99.6048 19.675 99.9048 19.57C100.205 19.465 100.46 19.3225 100.67 19.1425C100.895 18.9475 101.067 18.715 101.187 18.445C101.322 18.175 101.39 17.8825 101.39 17.5675V16.78C100.535 16.78 99.7998 16.84 99.1848 16.96C98.5698 17.08 98.0973 17.2675 97.7673 17.5225C97.4373 17.7775 97.2723 18.1 97.2723 18.49C97.2723 18.775 97.3398 19.015 97.4748 19.21C97.6248 19.39 97.8198 19.525 98.0598 19.615C98.2998 19.69 98.5848 19.7275 98.9148 19.7275Z" fill="#15110D"/>
</svg>
