<svg width="19" height="19" viewBox="0 0 19 19" fill="none" xmlns="http://www.w3.org/2000/svg">
<path d="M13.2812 1.5625H5.46875C3.31139 1.5625 1.5625 3.31139 1.5625 5.46875V13.2812C1.5625 15.4386 3.31139 17.1875 5.46875 17.1875H13.2812C15.4386 17.1875 17.1875 15.4386 17.1875 13.2812V5.46875C17.1875 3.31139 15.4386 1.5625 13.2812 1.5625Z" stroke="#8A7563" stroke-width="1.17188" stroke-linecap="round" stroke-linejoin="round"/>
<path d="M12.5 8.88293C12.5964 9.53312 12.4854 10.1972 12.1826 10.7806C11.8799 11.364 11.4009 11.8372 10.8138 12.1327C10.2267 12.4282 9.5613 12.531 8.91235 12.4266C8.26339 12.3222 7.66389 12.0158 7.19911 11.551C6.73433 11.0862 6.42793 10.4867 6.32351 9.83778C6.21908 9.18883 6.32194 8.52347 6.61746 7.93634C6.91297 7.34922 7.3861 6.87022 7.96953 6.56749C8.55297 6.26476 9.21701 6.1537 9.8672 6.25011C10.5304 6.34846 11.1444 6.65751 11.6185 7.1316C12.0926 7.6057 12.4017 8.21971 12.5 8.88293Z" stroke="#8A7563" stroke-width="1.17188" stroke-linecap="round" stroke-linejoin="round"/>
<path d="M13.6719 5.07812H13.6797" stroke="#8A7563" stroke-width="1.17188" stroke-linecap="round" stroke-linejoin="round"/>
</svg>
