<svg width="19" height="19" viewBox="0 0 19 19" fill="none" xmlns="http://www.w3.org/2000/svg">
<path d="M11.3562 16.9422C11.3859 17.0162 11.4375 17.0793 11.5041 17.1231C11.5707 17.1669 11.6491 17.1893 11.7288 17.1872C11.8084 17.1852 11.8856 17.1588 11.9498 17.1117C12.0141 17.0645 12.0624 16.9988 12.0883 16.9234L17.1664 2.07969C17.1914 2.01046 17.1962 1.93555 17.1801 1.86371C17.1641 1.79188 17.128 1.72609 17.0759 1.67404C17.0239 1.622 16.9581 1.58585 16.8863 1.56984C16.8144 1.55382 16.7395 1.55859 16.6703 1.58359L1.82653 6.66172C1.75114 6.68757 1.68546 6.73587 1.63831 6.80013C1.59116 6.86439 1.56479 6.94154 1.56275 7.02122C1.56071 7.10089 1.58309 7.17929 1.62689 7.24588C1.67069 7.31247 1.73381 7.36407 1.80778 7.39375L8.0031 9.87812C8.19894 9.95654 8.37689 10.0738 8.52619 10.2228C8.6755 10.3719 8.79308 10.5496 8.87185 10.7453L11.3562 16.9422Z" stroke="#8A7563" stroke-width="1.17188" stroke-linecap="round" stroke-linejoin="round"/>
<path d="M17.0735 1.67725L8.52661 10.2233" stroke="#8A7563" stroke-width="1.17188" stroke-linecap="round" stroke-linejoin="round"/>
</svg>
